<?xml version="1.0" encoding="UTF-8" standalone="no"?>
<svg
   width="267.11301"
   height="109.745"
   version="1.0"
   id="svg28"
   sodipodi:docname="Arm.svg"
   inkscape:version="1.2.2 (b0a8486541, 2022-12-01)"
   xmlns:inkscape="http://www.inkscape.org/namespaces/inkscape"
   xmlns:sodipodi="http://sodipodi.sourceforge.net/DTD/sodipodi-0.dtd"
   xmlns="http://www.w3.org/2000/svg"
   xmlns:svg="http://www.w3.org/2000/svg">
  <defs
     id="defs32" />
  <sodipodi:namedview
     id="namedview30"
     pagecolor="#ffffff"
     bordercolor="#666666"
     borderopacity="1.0"
     inkscape:showpageshadow="2"
     inkscape:pageopacity="0.0"
     inkscape:pagecheckerboard="0"
     inkscape:deskcolor="#d1d1d1"
     showgrid="false"
     inkscape:zoom="1.3088338"
     inkscape:cx="127.21249"
     inkscape:cy="123.01027"
     inkscape:window-width="1920"
     inkscape:window-height="1011"
     inkscape:window-x="0"
     inkscape:window-y="0"
     inkscape:window-maximized="1"
     inkscape:current-layer="svg28" />
  <path
     stroke-linecap="square"
     stroke-width="1"
     d="m 6.2705261,82.070231 c -1.836633,0.631057 -2.114862,2.887525 0.03829,3.093089 6.2675979,-1.16215 7.8391389,2.020744 7.6256219,10.696787 -0.145332,5.882043 -1.339568,9.276223 -5.2106029,9.920803 -3.866936,0.6439 -5.565131,-3.66194 -5.046016,-7.95801 0.0964,-2.983664 -2.90124802,-2.702105 -3.17765502,0.859881 0.07264,8.577049 4.16684602,10.530739 7.87885802,10.561589 5.4650699,0.0455 8.6756719,-5.52236 8.5601229,-10.204627 -0.09296,-3.8029 -0.134855,-7.009988 -0.190468,-10.497478 -0.05134,-3.217311 -4.319639,-8.163294 -10.4782009,-6.472034 z m 254.5724439,0 c 1.83663,0.631057 2.11486,2.887525 -0.0383,3.093089 -6.26759,-1.16215 -7.83913,2.020744 -7.62562,10.696787 0.14533,5.882043 1.33957,9.276223 5.21061,9.920803 3.86693,0.6439 5.56513,-3.66194 5.04601,-7.95801 -0.0964,-2.983664 2.90125,-2.702105 3.17766,0.859881 -0.0726,8.577049 -4.16685,10.530739 -7.87886,10.561589 -5.46507,0.0455 -8.67567,-5.52236 -8.56012,-10.204627 0.093,-3.8029 0.13485,-7.009988 0.19046,-10.497478 0.0513,-3.217311 4.31964,-8.163294 10.4782,-6.472034 z"
     overflow="visible"
     style="fill:#eac102;stroke:#000000;marker:none"
     id="path2" />
  <path
     stroke-linecap="square"
     stroke-width="1"
     d="m 75.343951,85.835489 c -28.69739,0.01295 -44.85797,4.411075 -58.23998,4.411075 v 7.753844 c 13.06042,0 40.79868,4.307262 58.23998,4.411072 17.44132,0.10382 58.239969,-4.411072 58.239979,-4.411072 -2e-5,0 40.83313,4.514892 58.27445,4.411072 17.44133,-0.10381 45.17956,-4.411072 58.23998,-4.411072 v -7.753844 c -13.38199,0 -29.54259,-4.398129 -58.23998,-4.411075 -28.69737,-0.01295 -58.27445,4.411075 -58.27445,4.411075 0,0 -29.54258,-4.424022 -58.239979,-4.411075 z M 143.83112,61.564218 c 0,16.546794 -5.80049,24.227767 -10.22995,24.227767 -4.42948,0 -10.22996,-7.680973 -10.22996,-24.227767 0,-16.546794 5.80048,-46.646187 10.22996,-46.646187 4.42946,0 10.22995,30.099393 10.22995,46.646187 z"
     overflow="visible"
     style="fill:#eac102;stroke:#000000;marker:none"
     id="path4" />
  <path
     stroke-linecap="square"
     stroke-width="1.00002"
     d="m 145.49237,94.127819 a 11.889643,12.69 0 1 1 -23.77928,0 11.889643,12.69 0 1 1 23.77928,0 z"
     overflow="visible"
     style="fill:#eac102;stroke:#000000;marker:none"
     id="path6" />
  <path
     stroke-linecap="square"
     stroke-width="0.999998"
     d="m 141.73727,94.126069 a 8.13626,8.6839746 0 1 1 -16.27252,0 8.13626,8.6839746 0 1 1 16.27252,0 z"
     overflow="visible"
     style="fill:#eac102;stroke:#000000;marker:none"
     id="path8" />
  <path
     stroke-linecap="square"
     d="m 133.60116,0.500006 c -5.244,0 -9.5,4.25601 -9.5,9.5 0,5.244 4.256,9.50001 9.5,9.5 5.244,0 9.5,-4.25599 9.5,-9.5 0,-5.244 -4.256,-9.49999 -9.5,-9.5 z m 0,5.59375 c 2.15659,10e-6 3.90625,1.74966 3.90625,3.90625 1e-5,2.1566 -1.74966,3.90625 -3.90625,3.90625 -2.15659,10e-6 -3.90625,-1.74966 -3.90625,-3.90625 0,-2.15658 1.74966,-3.90625 3.90625,-3.90625 z"
     overflow="visible"
     style="fill:#eac102;stroke:#000000;marker:none"
     id="path10" />
</svg>
